<?xml version="1.0" encoding="UTF-8" standalone="no"?>
<!DOCTYPE svg PUBLIC "-//W3C//DTD SVG 1.1//EN" "http://www.w3.org/Graphics/SVG/1.1/DTD/svg11.dtd">
<svg xmlns="http://www.w3.org/2000/svg" version="1.1" viewBox="0.00 0.00 66.00 74.00">
<path stroke="#78787c" stroke-width="2.00" fill="none" stroke-linecap="butt" vector-effect="non-scaling-stroke" d="
  M 19.82 49.30
  L 33.94 35.18
  A 0.88 0.88 0.0 0 1 35.19 35.18
  L 35.47 35.46
  A 1.25 1.24 -45.2 0 1 35.47 37.23
  L 16.00 56.58
  A 1.96 1.96 0.0 0 0 15.83 59.17
  L 15.85 59.20
  A 1.73 1.73 0.0 0 0 18.46 59.41
  L 22.54 55.41
  A 1.45 1.44 22.7 0 1 23.55 55.00
  C 29.23 55.06 33.99 54.73 39.00 51.75
  A 0.74 0.73 52.1 0 0 39.14 50.60
  L 38.12 49.58
  A 0.61 0.60 -31.2 0 1 38.37 48.57
  L 44.65 46.68
  A 0.97 0.92 -75.5 0 0 45.02 46.45
  L 46.92 44.56
  A 1.06 1.06 0.0 0 0 46.46 42.79
  Q 45.33 42.46 43.63 42.42
  A 0.76 0.73 2.9 0 1 42.89 41.63
  Q 42.92 41.25 43.20 41.15
  Q 44.80 40.57 51.27 38.68
  A 2.93 2.93 0.0 0 0 53.27 36.68
  C 57.01 23.79 42.33 14.41 32.49 23.99
  Q 27.01 29.32 24.68 31.89
  Q 18.05 39.23 19.12 49.05
  A 0.41 0.41 0.0 0 0 19.82 49.30"
/>
<path fill="#efeff8" d="
  M 66.00 0.00
  L 66.00 74.00
  L 0.00 74.00
  L 0.00 0.00
  L 66.00 0.00
  Z
  M 19.82 49.30
  L 33.94 35.18
  A 0.88 0.88 0.0 0 1 35.19 35.18
  L 35.47 35.46
  A 1.25 1.24 -45.2 0 1 35.47 37.23
  L 16.00 56.58
  A 1.96 1.96 0.0 0 0 15.83 59.17
  L 15.85 59.20
  A 1.73 1.73 0.0 0 0 18.46 59.41
  L 22.54 55.41
  A 1.45 1.44 22.7 0 1 23.55 55.00
  C 29.23 55.06 33.99 54.73 39.00 51.75
  A 0.74 0.73 52.1 0 0 39.14 50.60
  L 38.12 49.58
  A 0.61 0.60 -31.2 0 1 38.37 48.57
  L 44.65 46.68
  A 0.97 0.92 -75.5 0 0 45.02 46.45
  L 46.92 44.56
  A 1.06 1.06 0.0 0 0 46.46 42.79
  Q 45.33 42.46 43.63 42.42
  A 0.76 0.73 2.9 0 1 42.89 41.63
  Q 42.92 41.25 43.20 41.15
  Q 44.80 40.57 51.27 38.68
  A 2.93 2.93 0.0 0 0 53.27 36.68
  C 57.01 23.79 42.33 14.41 32.49 23.99
  Q 27.01 29.32 24.68 31.89
  Q 18.05 39.23 19.12 49.05
  A 0.41 0.41 0.0 0 0 19.82 49.30
  Z"
/>
<path fill="#000000" d="
  M 19.12 49.05
  Q 18.05 39.23 24.68 31.89
  Q 27.01 29.32 32.49 23.99
  C 42.33 14.41 57.01 23.79 53.27 36.68
  A 2.93 2.93 0.0 0 1 51.27 38.68
  Q 44.80 40.57 43.20 41.15
  Q 42.92 41.25 42.89 41.63
  A 0.76 0.73 2.9 0 0 43.63 42.42
  Q 45.33 42.46 46.46 42.79
  A 1.06 1.06 0.0 0 1 46.92 44.56
  L 45.02 46.45
  A 0.97 0.92 -75.5 0 1 44.65 46.68
  L 38.37 48.57
  A 0.61 0.60 -31.2 0 0 38.12 49.58
  L 39.14 50.60
  A 0.74 0.73 52.1 0 1 39.00 51.75
  C 33.99 54.73 29.23 55.06 23.55 55.00
  A 1.45 1.44 22.7 0 0 22.54 55.41
  L 18.46 59.41
  A 1.73 1.73 0.0 0 1 15.85 59.20
  L 15.83 59.17
  A 1.96 1.96 0.0 0 1 16.00 56.58
  L 35.47 37.23
  A 1.25 1.24 -45.2 0 0 35.47 35.46
  L 35.19 35.18
  A 0.88 0.88 0.0 0 0 33.94 35.18
  L 19.82 49.30
  A 0.41 0.41 0.0 0 1 19.12 49.05
  Z"
/>
</svg>
