<?xml version="1.0" encoding="UTF-8" standalone="no"?>
<!DOCTYPE svg PUBLIC "-//W3C//DTD SVG 1.1//EN" "http://www.w3.org/Graphics/SVG/1.1/DTD/svg11.dtd">
<svg xmlns="http://www.w3.org/2000/svg" version="1.1" viewBox="0.00 0.00 64.00 64.00">
<path fill="#297372" d="
  M 27.89 44.23
  C 19.52 54.19 4.65 45.96 7.51 33.25
  C 9.54 24.22 21.69 20.57 27.76 28.35
  A 0.23 0.23 0.0 0 0 28.17 28.20
  L 28.17 15.10
  A 0.57 0.56 -0.0 0 1 28.74 14.54
  L 30.83 14.54
  A 0.55 0.55 0.0 0 1 31.38 15.09
  L 31.38 47.75
  A 0.59 0.58 -0.0 0 1 30.79 48.33
  L 28.85 48.33
  A 0.52 0.52 0.0 0 1 28.33 47.81
  L 28.33 44.39
  A 0.25 0.25 0.0 0 0 27.89 44.23
  Z
  M 19.1588 26.9409
  A 9.40 8.99 -90.8 0 0 10.3009 36.4655
  A 9.40 8.99 -90.8 0 0 19.4212 45.7391
  A 9.40 8.99 -90.8 0 0 28.2791 36.2145
  A 9.40 8.99 -90.8 0 0 19.1588 26.9409
  Z"
/>
<path fill="#fe8552" d="
  M 35.66 44.36
  L 35.66 47.78
  A 0.52 0.52 0.0 0 1 35.14 48.30
  L 33.20 48.30
  A 0.59 0.58 -0.0 0 1 32.61 47.72
  L 32.61 15.06
  A 0.55 0.55 0.0 0 1 33.16 14.51
  L 35.25 14.51
  A 0.57 0.56 -0.0 0 1 35.82 15.07
  L 35.82 28.17
  A 0.23 0.23 0.0 0 0 36.23 28.32
  C 42.30 20.54 54.45 24.19 56.48 33.22
  C 59.34 45.93 44.47 54.16 36.10 44.20
  A 0.25 0.25 0.0 0 0 35.66 44.36
  Z
  M 44.5358 26.9014
  A 9.41 9.01 -91.0 0 0 35.6914 36.4672
  A 9.41 9.01 -91.0 0 0 44.8642 45.7186
  A 9.41 9.01 -91.0 0 0 53.7086 36.1528
  A 9.41 9.01 -91.0 0 0 44.5358 26.9014
  Z"
/>
</svg>
