<?xml version="1.0" encoding="UTF-8"?>
<svg width="173px" height="173px" viewBox="0 0 173 173" version="1.1" xmlns="http://www.w3.org/2000/svg" xmlns:xlink="http://www.w3.org/1999/xlink">
    <title>icon@3x</title>
    <g id="Page-1" stroke="none" stroke-width="1" fill="none" fill-rule="evenodd">
        <g id="icon" transform="translate(-0, 0.69)" fill-rule="nonzero">
            <g id="Group" transform="translate(86.01, 0)">
                <polygon id="Path" fill="#F982C3" points="54.52 86 86 54.52 31.47 -5.68434189e-14 11.87 74.78"></polygon>
                <polygon id="Path" fill="#EF56A3" points="43.18 43.15 31.47 -5.68434189e-14 0 31.48 11.87 74.78"></polygon>
                <polygon id="Path" fill="#EA2880" points="86 54.52 74.48 11.52 31.47 -5.68434189e-14 43.18 43.15"></polygon>
            </g>
            <g id="Group" transform="translate(-0, 0)">
                <polygon id="Path" fill="#FFD878" points="31.48 86 0 54.52 54.53 -5.68434189e-14 74.13 74.78"></polygon>
                <polygon id="Path" fill="#F9C33E" points="42.82 43.15 54.53 -5.68434189e-14 86 31.48 74.13 74.78"></polygon>
                <polygon id="Path" fill="#F9AD03" points="0 54.52 11.52 11.52 54.53 -5.68434189e-14 42.82 43.15"></polygon>
            </g>
            <g id="Group" transform="translate(-0, 86)">
                <polygon id="Path" fill="#7DF4D0" points="31.48 0 0 31.48 54.53 86 74.13 11.23"></polygon>
                <polygon id="Path" fill="#47DDB2" points="42.82 42.86 54.53 86 86 54.53 74.13 11.23"></polygon>
                <polygon id="Path" fill="#37BC9B" points="0 31.48 11.52 74.48 54.53 86 42.82 42.86"></polygon>
            </g>
            <polygon id="Path" fill="#5BD9FC" points="140.53 86 172.01 117.48 117.48 172 97.88 97.23"></polygon>
            <polygon id="Path" fill="#30C4F2" points="129.19 128.86 117.48 172 86.01 140.53 97.88 97.23"></polygon>
            <polygon id="Path" fill="#1FAAE8" points="172.01 117.48 160.49 160.48 117.48 172 129.19 128.86"></polygon>
        </g>
    </g>
</svg>