<?xml version="1.0" encoding="UTF-8" standalone="no"?>
<!DOCTYPE svg PUBLIC "-//W3C//DTD SVG 1.1//EN" "http://www.w3.org/Graphics/SVG/1.1/DTD/svg11.dtd">
<svg xmlns="http://www.w3.org/2000/svg" version="1.1" viewBox="0.00 0.00 32.00 32.00">
<g stroke-width="2.00" fill="none" stroke-linecap="butt">
<path stroke="#828a96" vector-effect="non-scaling-stroke" d="
  M 25.47 13.75
  Q 24.27 14.41 24.45 13.05
  C 25.25 6.98 20.84 5.51 16.54 3.17
  Q 15.89 2.81 15.26 3.20
  L 13.69 4.15
  Q 13.05 4.54 13.71 4.90
  Q 16.90 6.62 19.81 8.38
  C 22.17 9.82 21.72 12.98 21.66 15.38
  A 0.96 0.95 75.5 0 1 21.19 16.19
  L 19.20 17.41
  Q 18.81 17.65 18.81 18.11
  L 18.80 20.40
  Q 18.80 20.92 19.26 20.66
  L 27.00 16.18
  A 0.82 0.79 75.4 0 0 27.39 15.48
  L 27.38 13.46
  Q 27.38 12.71 26.72 13.07
  L 25.47 13.75"
/>
<path stroke="#828a96" vector-effect="non-scaling-stroke" d="
  M 9.77 9.05
  A 0.34 0.34 0.0 0 1 9.77 9.64
  C 7.53 10.87 4.83 12.33 4.67 15.19
  Q 4.49 18.44 4.61 22.43
  Q 4.62 22.64 4.81 22.74
  L 7.21 23.98
  Q 7.43 24.10 7.44 23.84
  Q 7.44 20.24 7.42 16.76
  C 7.40 13.78 10.49 12.37 12.75 11.32
  Q 13.36 11.04 13.85 11.49
  Q 15.94 13.43 18.32 11.35
  Q 18.74 10.98 18.25 10.71
  L 10.81 6.42
  Q 10.25 6.10 9.70 6.43
  L 8.18 7.32
  Q 7.43 7.77 8.20 8.19
  L 9.77 9.05"
/>
<path stroke="#828a96" vector-effect="non-scaling-stroke" d="
  M 13.92 24.56
  C 16.31 26.30 18.68 27.36 21.47 25.88
  Q 24.30 24.38 27.17 22.58
  A 0.45 0.44 -15.7 0 0 27.39 22.20
  L 27.38 19.49
  Q 27.38 19.27 27.19 19.37
  Q 24.01 21.11 20.70 23.06
  C 18.27 24.51 15.59 22.41 13.53 21.09
  Q 13.08 20.80 13.09 20.27
  L 13.15 18.15
  Q 13.17 17.56 12.66 17.27
  L 10.98 16.33
  Q 10.26 15.93 10.26 16.75
  L 10.24 25.19
  Q 10.24 25.73 10.69 26.01
  L 12.50 27.15
  Q 13.16 27.57 13.14 26.79
  L 13.11 24.98
  Q 13.08 23.94 13.92 24.56"
/>
</g>
<path fill="#05142d" d="
  M 2.22 0.00
  L 29.71 0.00
  Q 31.27 0.82 32.00 2.37
  L 32.00 29.53
  Q 31.31 31.22 29.60 32.00
  L 2.40 32.00
  Q 0.79 31.26 0.00 29.64
  L 0.00 2.25
  Q 0.85 0.82 2.22 0.00
  Z
  M 25.47 13.75
  Q 24.27 14.41 24.45 13.05
  C 25.25 6.98 20.84 5.51 16.54 3.17
  Q 15.89 2.81 15.26 3.20
  L 13.69 4.15
  Q 13.05 4.54 13.71 4.90
  Q 16.90 6.62 19.81 8.38
  C 22.17 9.82 21.72 12.98 21.66 15.38
  A 0.96 0.95 75.5 0 1 21.19 16.19
  L 19.20 17.41
  Q 18.81 17.65 18.81 18.11
  L 18.80 20.40
  Q 18.80 20.92 19.26 20.66
  L 27.00 16.18
  A 0.82 0.79 75.4 0 0 27.39 15.48
  L 27.38 13.46
  Q 27.38 12.71 26.72 13.07
  L 25.47 13.75
  Z
  M 9.77 9.05
  A 0.34 0.34 0.0 0 1 9.77 9.64
  C 7.53 10.87 4.83 12.33 4.67 15.19
  Q 4.49 18.44 4.61 22.43
  Q 4.62 22.64 4.81 22.74
  L 7.21 23.98
  Q 7.43 24.10 7.44 23.84
  Q 7.44 20.24 7.42 16.76
  C 7.40 13.78 10.49 12.37 12.75 11.32
  Q 13.36 11.04 13.85 11.49
  Q 15.94 13.43 18.32 11.35
  Q 18.74 10.98 18.25 10.71
  L 10.81 6.42
  Q 10.25 6.10 9.70 6.43
  L 8.18 7.32
  Q 7.43 7.77 8.20 8.19
  L 9.77 9.05
  Z
  M 13.92 24.56
  C 16.31 26.30 18.68 27.36 21.47 25.88
  Q 24.30 24.38 27.17 22.58
  A 0.45 0.44 -15.7 0 0 27.39 22.20
  L 27.38 19.49
  Q 27.38 19.27 27.19 19.37
  Q 24.01 21.11 20.70 23.06
  C 18.27 24.51 15.59 22.41 13.53 21.09
  Q 13.08 20.80 13.09 20.27
  L 13.15 18.15
  Q 13.17 17.56 12.66 17.27
  L 10.98 16.33
  Q 10.26 15.93 10.26 16.75
  L 10.24 25.19
  Q 10.24 25.73 10.69 26.01
  L 12.50 27.15
  Q 13.16 27.57 13.14 26.79
  L 13.11 24.98
  Q 13.08 23.94 13.92 24.56
  Z"
/>
<path fill="#ffffff" d="
  M 25.47 13.75
  L 26.72 13.07
  Q 27.38 12.71 27.38 13.46
  L 27.39 15.48
  A 0.82 0.79 75.4 0 1 27.00 16.18
  L 19.26 20.66
  Q 18.80 20.92 18.80 20.40
  L 18.81 18.11
  Q 18.81 17.65 19.20 17.41
  L 21.19 16.19
  A 0.96 0.95 75.5 0 0 21.66 15.38
  C 21.72 12.98 22.17 9.82 19.81 8.38
  Q 16.90 6.62 13.71 4.90
  Q 13.05 4.54 13.69 4.15
  L 15.26 3.20
  Q 15.89 2.81 16.54 3.17
  C 20.84 5.51 25.25 6.98 24.45 13.05
  Q 24.27 14.41 25.47 13.75
  Z"
/>
<path fill="#ffffff" d="
  M 9.77 9.05
  L 8.20 8.19
  Q 7.43 7.77 8.18 7.32
  L 9.70 6.43
  Q 10.25 6.10 10.81 6.42
  L 18.25 10.71
  Q 18.74 10.98 18.32 11.35
  Q 15.94 13.43 13.85 11.49
  Q 13.36 11.04 12.75 11.32
  C 10.49 12.37 7.40 13.78 7.42 16.76
  Q 7.44 20.24 7.44 23.84
  Q 7.43 24.10 7.21 23.98
  L 4.81 22.74
  Q 4.62 22.64 4.61 22.43
  Q 4.49 18.44 4.67 15.19
  C 4.83 12.33 7.53 10.87 9.77 9.64
  A 0.34 0.34 0.0 0 0 9.77 9.05
  Z"
/>
<path fill="#ffffff" d="
  M 13.11 24.98
  L 13.14 26.79
  Q 13.16 27.57 12.50 27.15
  L 10.69 26.01
  Q 10.24 25.73 10.24 25.19
  L 10.26 16.75
  Q 10.26 15.93 10.98 16.33
  L 12.66 17.27
  Q 13.17 17.56 13.15 18.15
  L 13.09 20.27
  Q 13.08 20.80 13.53 21.09
  C 15.59 22.41 18.27 24.51 20.70 23.06
  Q 24.01 21.11 27.19 19.37
  Q 27.38 19.27 27.38 19.49
  L 27.39 22.20
  A 0.45 0.44 -15.7 0 1 27.17 22.58
  Q 24.30 24.38 21.47 25.88
  C 18.68 27.36 16.31 26.30 13.92 24.56
  Q 13.08 23.94 13.11 24.98
  Z"
/>
</svg>
